<?xml version="1.0" encoding="UTF-8"?>
<svg xmlns="http://www.w3.org/2000/svg" xmlns:xlink="http://www.w3.org/1999/xlink" viewBox="0 0 200.07 200">
  <defs>
    <clipPath id="clippath">
      <circle cx="70.22" cy="100.61" r="45" style="fill: none; stroke: #000; stroke-miterlimit: 10; stroke-width: 8px;"/>
    </clipPath>
  </defs>
  <g id="Calque_1" data-name="Calque 1">
    <g>
      <rect x="4" y="4" width="192" height="192" rx="19.14" ry="19.14" style="fill: #d86a17;"/>
      <path d="m176.86,8c8.35,0,15.14,6.79,15.14,15.14v153.72c0,8.35-6.79,15.14-15.14,15.14H23.14c-8.35,0-15.14-6.79-15.14-15.14V23.14c0-8.35,6.79-15.14,15.14-15.14h153.72m0-8H23.14C10.36,0,0,10.36,0,23.14v153.72c0,12.78,10.36,23.14,23.14,23.14h153.72c12.78,0,23.14-10.36,23.14-23.14V23.14c0-12.78-10.36-23.14-23.14-23.14h0Z"/>
    </g>
    <g>
      <path d="m147.51,124.5c-7.17,0-13.01-5.83-13.01-13.01v-21.99c0-7.17,5.83-13.01,13.01-13.01h51.01c.08,10.75.08,37.25,0,48h-51.01Z"/>
      <path d="m197.02,78c.07,11,.07,34,0,45h-49.52c-6.34,0-11.51-5.16-11.51-11.51v-21.99c0-6.34,5.16-11.51,11.51-11.51h49.52m2.98-3h-52.49c-8.01,0-14.51,6.49-14.51,14.51v21.99c0,8.01,6.49,14.51,14.51,14.51h52.49c.1-10,.1-41,0-51h0Z"/>
    </g>
    <g>
      <circle cx="152.5" cy="100.5" r="10" style="fill: #fff;"/>
      <path d="m152.5,92c4.69,0,8.5,3.81,8.5,8.5s-3.81,8.5-8.5,8.5-8.5-3.81-8.5-8.5,3.81-8.5,8.5-8.5m0-3c-6.35,0-11.5,5.15-11.5,11.5s5.15,11.5,11.5,11.5,11.5-5.15,11.5-11.5-5.15-11.5-11.5-11.5h0Z"/>
    </g>
    <line x1="29" y1="27" x2="176" y2="27" style="fill: none; stroke: #000; stroke-linecap: round; stroke-linejoin: round; stroke-width: 8px;"/>
    <path d="m176,27c-.12-.06,19.88-.06,20,20" style="fill: none; fill-rule: evenodd; stroke: #000; stroke-linejoin: round; stroke-width: 8px;"/>
  </g>
  <g id="Calque_4" data-name="Calque 4">
    <g>
      <g style="clip-path: url(#clippath);">
        <g>
          <line x1="46.62" y1="113.1" x2="68.83" y2="99.22" style="fill: none; stroke: #000; stroke-linejoin: round; stroke-width: 3px;"/>
          <line x1="70.22" y1="129.07" x2="70.22" y2="101.31" style="fill: none; stroke: #000; stroke-linejoin: round; stroke-width: 3px;"/>
          <line x1="95.21" y1="117.27" x2="70.22" y2="100.61" style="fill: none; stroke: #000; stroke-linejoin: round; stroke-width: 3px;"/>
          <line x1="95.21" y1="86.73" x2="70.22" y2="100.61" style="fill: none; stroke: #000; stroke-linejoin: round; stroke-width: 3px;"/>
          <line x1="70.22" y1="77.01" x2="70.22" y2="96.45" style="fill: none; stroke: #000; stroke-linejoin: round; stroke-width: 3px;"/>
          <line x1="45.24" y1="85.34" x2="70.22" y2="100.61" style="fill: none; stroke: #000; stroke-miterlimit: 10; stroke-width: 3px;"/>
          <g>
            <path d="m81.13,101.47c0,2.1,0,4.21,0,6.31,0,.18-.07.27-.21.35-2.58,1.5-5.16,3-7.74,4.5-.83.48-1.66.97-2.5,1.44-.07.04-.21.03-.28-.01-1.85-1.06-3.69-2.14-5.53-3.21-1.8-1.05-3.6-2.09-5.4-3.14-.13-.08-.21-.15-.21-.33,0-4.2-.02-8.4-.04-12.59,0-.19.06-.29.23-.39,2.02-1.15,4.04-2.31,6.05-3.47,1.4-.8,2.79-1.6,4.19-2.41.14-.08.23-.03.34.03,1.67.96,3.35,1.92,5.02,2.88,1.92,1.1,3.83,2.2,5.75,3.28.28.16.37.32.37.64-.02,2.04,0,4.07,0,6.11h-.04Zm-21.17-5.7c0,.11-.01.15-.01.2,0,3.62,0,7.25,0,10.87,0,.29.13.42.35.54,3.04,1.76,6.07,3.52,9.11,5.29.14.08.29.15.45.23,0-.09,0-.13,0-.17,0-3.65,0-7.3,0-10.94,0-.24-.1-.36-.29-.47-2.51-1.44-5.01-2.89-7.51-4.34-.68-.4-1.37-.79-2.1-1.21Z"/>
            <path d="m59.96,95.77c.73.42,1.41.81,2.1,1.21,2.5,1.45,5.01,2.89,7.51,4.34.19.11.3.23.29.47,0,3.65,0,7.3,0,10.94,0,.04,0,.08,0,.17-.16-.08-.31-.15-.45-.23-3.04-1.76-6.07-3.53-9.11-5.29-.22-.13-.35-.26-.35-.54.01-3.62,0-7.25,0-10.87,0-.05,0-.1.01-.2Z" style="fill: #fff;"/>
          </g>
          <g>
            <path d="m80.96,133.16c0,2.09,0,4.19,0,6.28,0,.18-.06.28-.21.36-2.35,1.37-4.7,2.73-7.05,4.1-1.04.61-2.09,1.21-3.13,1.82-.14.08-.24.1-.39.01-2.83-1.66-5.67-3.31-8.51-4.96-.78-.45-1.56-.91-2.34-1.36-.17-.1-.23-.2-.23-.4,0-3.8-.02-7.6-.03-11.4,0-.39,0-.78-.01-1.17,0-.16.05-.25.19-.34,3.38-1.93,6.75-3.87,10.12-5.81.22-.13.38-.12.59,0,3.54,2.04,7.08,4.07,10.63,6.09.31.17.41.36.4.71-.02,2.02,0,4.04,0,6.06h-.04Zm-11.28,11.47c0-.14.02-.21.02-.29,0-3.65,0-7.3,0-10.94,0-.18-.06-.27-.21-.36-1.12-.64-2.24-1.28-3.35-1.92-2.06-1.19-4.11-2.38-6.16-3.57-.05-.03-.12-.04-.21-.08,0,.12-.02.21-.02.3,0,1.61.02,3.22.02,4.84,0,2.02.01,4.04,0,6.05,0,.18.06.28.21.36.54.3,1.08.61,1.62.92,1.35.78,2.69,1.57,4.03,2.35.85.49,1.7.99,2.55,1.48.48.28.96.55,1.49.86Z"/>
            <path d="m69.67,144.64c-.53-.31-1.01-.58-1.49-.86-.85-.49-1.7-.98-2.55-1.48-1.34-.78-2.69-1.57-4.03-2.35-.54-.31-1.08-.62-1.62-.92-.14-.08-.21-.18-.21-.36,0-2.02,0-4.04,0-6.05,0-1.61-.01-3.22-.02-4.84,0-.09.01-.18.02-.3.09.03.15.05.21.08,2.05,1.19,4.11,2.38,6.16,3.57,1.11.65,2.23,1.29,3.35,1.92.15.09.21.18.21.36,0,3.65,0,7.3,0,10.94,0,.07,0,.15-.02.29Z" style="fill: #fff;"/>
          </g>
          <g>
            <path d="m52.96,116.22c0,2.04,0,4.09,0,6.13,0,.28-.07.44-.33.59-2.75,1.59-5.49,3.19-8.24,4.79-.63.36-1.25.73-1.88,1.09-.07.04-.2.03-.27,0-2.08-1.2-4.15-2.41-6.23-3.62-1.57-.91-3.15-1.83-4.72-2.74-.14-.08-.2-.16-.2-.33,0-4.19-.02-8.38-.04-12.57,0-.2.05-.31.23-.41,2.36-1.34,4.71-2.7,7.06-4.05,1.05-.6,2.11-1.2,3.16-1.81.14-.08.24-.05.37.02,1.75,1.01,3.51,2.01,5.26,3.02,1.86,1.06,3.71,2.13,5.57,3.19.21.12.31.24.3.5-.01,2.07,0,4.14,0,6.21-.01,0-.03,0-.04,0Zm-21.18-5.7c0,.14-.02.22-.02.31,0,3.59,0,7.18,0,10.77,0,.32.17.44.4.57,1.53.88,3.05,1.77,4.57,2.66,1.54.89,3.08,1.79,4.62,2.68.1.06.2.1.32.15,0-.08,0-.11,0-.15,0-3.66,0-7.31,0-10.97,0-.23-.09-.35-.27-.46-2.63-1.51-5.26-3.03-7.88-4.55-.57-.33-1.14-.65-1.75-1Z"/>
            <path d="m31.79,110.52c.61.35,1.18.68,1.75,1,2.63,1.52,5.25,3.04,7.88,4.55.19.11.27.23.27.46,0,3.66,0,7.31,0,10.97,0,.03,0,.07,0,.15-.12-.06-.22-.1-.32-.15-1.54-.89-3.08-1.79-4.62-2.68-1.53-.89-3.05-1.77-4.57-2.66-.22-.13-.4-.25-.4-.57.01-3.59,0-7.18,0-10.77,0-.08,0-.17.02-.31Z" style="fill: #fff;"/>
          </g>
          <g>
            <path d="m109.9,85.16c0,2.1,0,4.21,0,6.31,0,.18-.07.27-.21.35-2.58,1.5-5.16,3-7.74,4.5-.83.48-1.67.96-2.49,1.45-.13.08-.21.03-.32-.03-1.81-1.06-3.63-2.11-5.44-3.16-1.82-1.06-3.64-2.12-5.46-3.17-.13-.08-.21-.15-.21-.33,0-4.2-.02-8.4-.04-12.59,0-.19.06-.29.23-.39,2.02-1.15,4.04-2.31,6.05-3.47,1.4-.8,2.79-1.6,4.19-2.41.14-.08.23-.03.34.03,1.67.96,3.33,1.91,5,2.87,1.92,1.1,3.84,2.21,5.77,3.3.28.16.38.32.37.64-.02,2.04,0,4.07,0,6.11h-.05Zm-21.17-5.69c0,.15-.02.22-.02.3,0,3.59,0,7.18,0,10.77,0,.3.15.43.37.56,3.02,1.75,6.04,3.51,9.06,5.26.15.09.3.16.48.25,0-.1,0-.14,0-.18,0-3.65,0-7.3,0-10.95,0-.24-.11-.36-.3-.47-2.83-1.63-5.65-3.26-8.48-4.89-.36-.21-.73-.41-1.13-.64Z"/>
            <path d="m88.73,79.47c.41.23.77.43,1.13.64,2.83,1.63,5.65,3.27,8.48,4.89.19.11.3.23.3.47,0,3.65,0,7.3,0,10.95,0,.04,0,.08,0,.18-.17-.09-.33-.16-.48-.25-3.02-1.75-6.04-3.51-9.06-5.26-.22-.13-.37-.26-.37-.56,0-3.59,0-7.18,0-10.77,0-.08,0-.15.02-.3Z" style="fill: #fff;"/>
          </g>
          <g>
            <path d="m109.91,121.17c0,2.05,0,4.1,0,6.16,0,.27-.08.42-.33.57-2.54,1.46-5.07,2.95-7.61,4.42-.84.49-1.67.98-2.52,1.46-.07.04-.21.03-.29-.01-1.85-1.06-3.69-2.14-5.53-3.21-1.8-1.05-3.6-2.09-5.4-3.14-.13-.08-.21-.15-.21-.33,0-4.2-.02-8.4-.04-12.59,0-.19.06-.29.23-.39,2.24-1.28,4.47-2.56,6.71-3.85,1.18-.68,2.36-1.35,3.53-2.03.14-.08.23-.03.34.03,1.67.96,3.35,1.92,5.02,2.88,1.92,1.1,3.83,2.2,5.75,3.28.28.16.38.32.37.64-.02,2.04,0,4.07,0,6.11-.01,0-.03,0-.04,0Zm-21.18-5.7c0,.15-.02.24-.02.33,0,3.56,0,7.13,0,10.69,0,.33.14.48.39.62,1.54.88,3.07,1.78,4.6,2.67,1.54.89,3.08,1.79,4.62,2.68.09.05.19.09.3.14,0-.09,0-.13,0-.17,0-3.64,0-7.28.01-10.92,0-.26-.11-.39-.32-.51-2.49-1.43-4.98-2.87-7.47-4.31-.69-.4-1.39-.8-2.12-1.22Z"/>
            <path d="m88.73,115.47c.73.42,1.43.82,2.12,1.22,2.49,1.44,4.98,2.88,7.47,4.31.21.12.32.25.32.51,0,3.64,0,7.28-.01,10.92,0,.04,0,.08,0,.17-.11-.05-.21-.09-.3-.14-1.54-.89-3.08-1.78-4.62-2.68-1.53-.89-3.06-1.78-4.6-2.67-.25-.14-.39-.29-.39-.62.01-3.56,0-7.13,0-10.69,0-.09.01-.18.02-.33Z" style="fill: #fff;"/>
          </g>
          <g>
            <path d="m80.41,68.18c0,2.04,0,4.07,0,6.11,0,.29-.07.46-.34.61-2.18,1.25-4.35,2.51-6.52,3.78-1.19.69-2.37,1.38-3.56,2.08-.13.08-.22.07-.34,0-2.37-1.38-4.73-2.76-7.1-4.13-1.27-.74-2.53-1.47-3.8-2.21-.14-.08-.21-.17-.21-.35,0-4.18-.02-8.36-.04-12.54,0-.21.06-.32.25-.43,2.59-1.48,5.18-2.97,7.76-4.45.82-.47,1.64-.94,2.45-1.41.13-.08.23-.05.34.02,2.14,1.23,4.28,2.46,6.43,3.68,1.51.86,3.01,1.73,4.52,2.59.16.09.2.19.2.36,0,2.1,0,4.21,0,6.31h-.04Zm-21.18-5.71c0,.14-.01.22-.01.29,0,3.59,0,7.18,0,10.77,0,.32.17.44.39.57,1.53.89,3.06,1.78,4.6,2.67,1.53.89,3.05,1.77,4.58,2.65.1.06.22.1.34.16,0-.08,0-.13,0-.17,0-3.64,0-7.28.01-10.92,0-.25-.09-.38-.3-.5-2.83-1.63-5.65-3.26-8.48-4.89-.36-.21-.73-.41-1.13-.64Z"/>
            <path d="m59.23,62.47c.41.23.77.43,1.13.64,2.83,1.63,5.65,3.27,8.48,4.89.21.12.3.25.3.5,0,3.64,0,7.28-.01,10.92,0,.04,0,.08,0,.17-.13-.06-.24-.1-.34-.16-1.53-.88-3.05-1.77-4.58-2.65-1.53-.89-3.06-1.78-4.6-2.67-.22-.13-.39-.25-.39-.57.01-3.59,0-7.18,0-10.77,0-.08,0-.15.01-.29Z" style="fill: #fff;"/>
          </g>
          <g>
            <path d="m52.95,83.23c0,2.05,0,4.11,0,6.16,0,.27-.09.41-.32.55-3.35,1.94-6.7,3.89-10.05,5.84-.16.09-.27.09-.43,0-2.86-1.67-5.72-3.33-8.58-5-.74-.43-1.47-.86-2.21-1.28-.2-.11-.27-.24-.28-.47,0-3.28-.02-6.55-.03-9.83,0-.9,0-1.79,0-2.69,0-.16.04-.25.19-.34,3.41-1.95,6.81-3.9,10.22-5.86.16-.09.27-.09.43,0,3.63,2.09,7.26,4.17,10.9,6.25.17.09.21.2.21.38,0,2.09,0,4.19,0,6.28-.01,0-.03,0-.04,0Zm-11.28,11.46c0-.13.01-.2.01-.26,0-3.61,0-7.23,0-10.84,0-.29-.1-.43-.34-.57-2.97-1.71-5.93-3.42-8.9-5.13-.22-.13-.45-.25-.71-.4,0,.13,0,.22,0,.3,0,3.47.03,6.94,0,10.41,0,.56.11.94.66,1.12.05.02.1.06.15.09,2.57,1.49,5.13,2.98,7.7,4.47.46.27.92.53,1.41.81Z"/>
            <path d="m41.68,94.69c-.5-.29-.96-.55-1.41-.81-2.57-1.49-5.13-2.98-7.7-4.47-.05-.03-.1-.08-.15-.09-.55-.18-.66-.56-.66-1.12.02-3.47,0-6.94,0-10.41,0-.08,0-.16,0-.3.26.15.49.28.71.4,2.97,1.71,5.93,3.43,8.9,5.13.23.13.34.27.34.57-.01,3.61,0,7.23,0,10.84,0,.07,0,.13-.01.26Z" style="fill: #fff;"/>
          </g>
        </g>
      </g>
      <circle cx="70.22" cy="100.61" r="45" style="fill: none; stroke: #000; stroke-miterlimit: 10; stroke-width: 8px;"/>
    </g>
    <rect x="93.08" y="142.08" width="54.55" height="17.98" rx="3.49" ry="3.49" transform="translate(98.64 343) rotate(-135)" style="stroke: #000; stroke-linejoin: round; stroke-width: 3px;"/>
  </g>
</svg>