<?xml version="1.0" encoding="utf-8"?>
<!-- Generator: Adobe Illustrator 27.2.0, SVG Export Plug-In . SVG Version: 6.00 Build 0)  -->
<svg version="1.1" id="Calque_1" xmlns="http://www.w3.org/2000/svg" xmlns:xlink="http://www.w3.org/1999/xlink" x="0px" y="0px"
	 viewBox="0 0 153.5 141.2" style="enable-background:new 0 0 153.5 141.2;" xml:space="preserve">
<style type="text/css">
	.st0{display:none;}
	.st1{fill:#F5841F;}
	.st2{fill:#E27625;}
	.st3{fill:#D7C1B3;}
	.st4{fill:#2F343B;}
	.st5{fill:#CC6228;}
	.st6{fill:#C0AD9E;}
	.st7{fill:#763E1A;}
</style>
<g id="bg_x28_do_not_export_x29_" class="st0">
</g>
<g id="MM_Head_background__x28_Do_not_edit_x29_">
	<g>
		<path class="st1" d="M141.8,70.5l6.9-8.1l-3-2.2l4.8-4.4l-3.7-2.8l4.8-3.6l-3.1-2.4l5-24.4L145.9,0 M145.9,0L97.1,18.1l0,0l0,0
			H56.4l0,0L7.6,0l0.3,0.2L7.6,0L0,22.6L5.1,47l-3.2,2.4L6.8,53l-3.7,2.8l4.8,4.4l-3,2.2l6.9,8.1L1.3,102.9l0,0l0,0L11,136l34.1-9.4
			v-0.1v0.1l0,0l0,0l0,0l0,0l0,0l0,0l0,0l6.6,5.4l13.5,9.2h23.1l13.5-9.2l6.6-5.4l0,0l0,0l0,0l0,0l34.2,9.4l9.8-33.1l0,0l0,0
			l-10.6-32.4 M45.1,126.5L45.1,126.5L45.1,126.5"/>
	</g>
</g>
<g id="Logos">
	<g>
		<polygon class="st2" points="145.9,0 86,44.1 97.1,18.1 		"/>
		<polygon class="st2" points="7.6,0 67,44.5 56.4,18.1 		"/>
		<polygon class="st2" points="124.4,102.3 108.4,126.5 142.6,135.9 152.4,102.8 		"/>
		<polygon class="st2" points="1.3,102.8 11,135.9 45.1,126.5 29.2,102.3 		"/>
		<polygon class="st2" points="43.3,61.3 33.8,75.6 67.6,77.1 66.5,40.9 		"/>
		<polygon class="st2" points="110.3,61.3 86.7,40.5 86,77.1 119.8,75.6 		"/>
		<polygon class="st2" points="45.1,126.5 65.6,116.7 47.9,103.1 		"/>
		<polygon class="st2" points="88,116.7 108.4,126.5 105.6,103.1 		"/>
		<polygon class="st3" points="108.4,126.5 88,116.7 89.7,129.9 89.5,135.5 		"/>
		<polygon class="st3" points="45.1,126.5 64.1,135.5 64,129.9 65.6,116.7 		"/>
		<polygon class="st4" points="64.4,94.3 47.5,89.4 59.5,83.9 		"/>
		<polygon class="st4" points="89.1,94.3 94.1,83.9 106.1,89.4 		"/>
		<polygon class="st5" points="45.1,126.5 48.1,102.3 29.2,102.8 		"/>
		<polygon class="st5" points="105.5,102.3 108.4,126.5 124.4,102.8 		"/>
		<polygon class="st5" points="119.8,75.6 86,77.1 89.1,94.3 94.1,83.9 106.1,89.4 		"/>
		<polygon class="st5" points="47.5,89.4 59.5,83.9 64.4,94.3 67.6,77.1 33.8,75.6 		"/>
		<polygon class="st2" points="33.8,75.6 47.9,103.1 47.5,89.4 		"/>
		<polygon class="st2" points="106.1,89.4 105.6,103.1 119.8,75.6 		"/>
		<polygon class="st2" points="67.6,77.1 64.4,94.3 68.4,114.7 69.3,87.9 		"/>
		<polygon class="st2" points="86,77.1 84.3,87.8 85.1,114.7 89.1,94.3 		"/>
		<polygon class="st1" points="89.1,94.3 85.1,114.7 88,116.7 105.6,103.1 106.1,89.4 		"/>
		<polygon class="st1" points="47.5,89.4 47.9,103.1 65.6,116.7 68.4,114.7 64.4,94.3 		"/>
		<polygon class="st6" points="89.5,135.5 89.7,129.9 88.1,128.6 65.4,128.6 64,129.9 64.1,135.5 45.1,126.5 51.7,131.9 65.2,141.2 
			88.3,141.2 101.8,131.9 108.4,126.5 		"/>
		<polygon class="st4" points="88,116.7 85.1,114.7 68.4,114.7 65.6,116.7 64,129.9 65.4,128.6 88.1,128.6 89.7,129.9 		"/>
		<polygon class="st7" points="148.5,47 153.5,22.6 145.9,0 88,42.6 110.3,61.3 141.8,70.5 148.7,62.4 145.7,60.2 150.5,55.9 
			146.8,53 151.6,49.4 		"/>
		<polygon class="st7" points="0,22.6 5.1,47 1.9,49.4 6.7,53.1 3,55.9 7.8,60.2 4.8,62.4 11.8,70.5 43.3,61.3 65.6,42.6 7.6,0 		
			"/>
		<polygon class="st1" points="141.8,70.5 110.3,61.3 119.8,75.6 105.6,103.1 124.4,102.8 152.4,102.8 		"/>
		<polygon class="st1" points="43.3,61.3 11.8,70.5 1.3,102.8 29.2,102.8 47.9,103.1 33.8,75.6 		"/>
		<polygon class="st1" points="86,77.1 88,42.6 97.1,18.1 56.4,18.1 65.6,42.6 67.6,77.1 68.4,87.9 68.4,114.7 85.1,114.7 
			85.2,87.9 		"/>
	</g>
</g>
</svg>
